<svg id="Layer_1" data-name="Layer 1" xmlns="http://www.w3.org/2000/svg" viewBox="0 0 110 15.14"><defs><style>.cls-1{fill:#fff;}</style></defs><title>logo</title><path class="cls-1" d="M1.88,13.24a1.83,1.83,0,0,1,.24-.83c.16-.3.35-.65.58-1L4.39,8.65,6.27,5.73A14.7,14.7,0,0,0,2.59,7.17a5,5,0,0,0-.85.61,1.85,1.85,0,0,1-1,.49C.24,8.27,0,8.06,0,7.63a1.27,1.27,0,0,1,.11-.52C.18,7,.28,6.78.4,6.57s.25-.44.41-.7.33-.51.52-.78.4-.53.61-.78A4.22,4.22,0,0,1,3.2,3.21a8.45,8.45,0,0,1,1.14-.44,14.32,14.32,0,0,1,1.45-.34A23.79,23.79,0,0,1,10,2.08a17.19,17.19,0,0,1,7.66,1.41A3.61,3.61,0,0,1,20,6.76a6,6,0,0,1-.13,1.08,7,7,0,0,1-.61,1.59,7.55,7.55,0,0,1-1.29,1.85A11,11,0,0,1,16,13a12.79,12.79,0,0,1-2.72,1.36A22,22,0,0,1,5.4,15.57a4.21,4.21,0,0,1-2.73-.79A1.89,1.89,0,0,1,1.88,13.24Zm5.4-3.8c-.25.54-.42.93-.5,1.16a2,2,0,0,0-.13.56.8.8,0,0,0,.12.4,1.15,1.15,0,0,0,.36.37,3,3,0,0,0,1.62.35,13.85,13.85,0,0,0,2.2-.17A14,14,0,0,0,13,11.65,11.13,11.13,0,0,0,14.69,11,10,10,0,0,0,16,10.25a2.73,2.73,0,0,0,1.18-1.47,1.69,1.69,0,0,0,0-.33q0-1.95-4.2-2.78A19.63,19.63,0,0,0,9.49,5.3C8.26,7.52,7.53,8.9,7.28,9.44Z" transform="translate(0 -0.43)"/><path class="cls-1" d="M33.75,8.13c.31,0,.46.17.46.52a2.3,2.3,0,0,1-.23.86,3.33,3.33,0,0,1-.68,1,13.58,13.58,0,0,1-1,.94c-.38.33-.82.67-1.33,1s-1.07.71-1.68,1.06a16,16,0,0,1-2,1,11.81,11.81,0,0,1-4.44.94A4.88,4.88,0,0,1,20,14.55a2.59,2.59,0,0,1-1.28-2.16,5.06,5.06,0,0,1,2.15-3.8,13.26,13.26,0,0,1,4.38-2.4,8.21,8.21,0,0,1,2.59-.52,2.47,2.47,0,0,1,1.46.42A1.46,1.46,0,0,1,30,7.32C30,8.14,29.32,9,28,10c-.21.16-.39.29-.56.4l-.34.23a17.13,17.13,0,0,1-2.91,1.5,2.43,2.43,0,0,0,1.12.32,3.05,3.05,0,0,0,.94-.13,8.12,8.12,0,0,0,.94-.35c.35-.16.73-.34,1.13-.55s.8-.45,1.21-.71A17.33,17.33,0,0,0,31.94,9a3.87,3.87,0,0,1,1.34-.77A1.54,1.54,0,0,1,33.75,8.13ZM23.19,10.82l.53-.27.46-.25a17.55,17.55,0,0,0,2.2-1.37q.27-.25.27-.36a.6.6,0,0,0-.06-.23,1,1,0,0,0-.15-.24A.67.67,0,0,0,26,7.83a1.8,1.8,0,0,0-.57.1,3.36,3.36,0,0,0-.63.26,4.56,4.56,0,0,0-.61.4,4.09,4.09,0,0,0-.51.51,1.75,1.75,0,0,0-.51,1A2.89,2.89,0,0,0,23.19,10.82Z" transform="translate(0 -0.43)"/><path class="cls-1" d="M44.26,12.24l-.43.24-.55.14a5.08,5.08,0,0,1-1.33.15,3.54,3.54,0,0,1-1.71-.53,17.83,17.83,0,0,1-2.53,1.91A7.08,7.08,0,0,1,35,15.34a4.24,4.24,0,0,1-2-.41c-1.19-.67-1.78-2-1.78-3.94a5.92,5.92,0,0,1,.94-3.22A3.93,3.93,0,0,1,34,6.21,2.79,2.79,0,0,1,35,6a4.79,4.79,0,0,1,.83.06,2.72,2.72,0,0,1,.61.16c.43.16.64.36.64.61a1.39,1.39,0,0,1-.3.84c-.21.27-.39.49-.54.65l-.44.48a4.39,4.39,0,0,0-.66.81,2,2,0,0,0-.19.87,3,3,0,0,0,.08.76,2.39,2.39,0,0,0,.23.51c.21.34.42.52.63.52s.91-.44,1.86-1.31l.85-.77a1.91,1.91,0,0,1,0-.43,1.66,1.66,0,0,1,.13-.59,4.11,4.11,0,0,1,.37-.72,6.23,6.23,0,0,1,.56-.77,6.44,6.44,0,0,1,.68-.7,2.45,2.45,0,0,1,1.54-.69,1.17,1.17,0,0,1,1.3,1.35,4,4,0,0,1-.48,1.8.69.69,0,0,0,.38.6.51.51,0,0,0,.28.07.78.78,0,0,0,.39-.13,4.07,4.07,0,0,0,.44-.32l.41-.35a3.24,3.24,0,0,1,1.76-1,.63.63,0,0,1,.47.18q.33.28.33.45a.75.75,0,0,1-.08.31c0,.11-.12.23-.2.37a4.65,4.65,0,0,1-.29.43,14.62,14.62,0,0,1-.92,1.17c-.18.18-.38.37-.61.57A4.91,4.91,0,0,1,44.26,12.24Z" transform="translate(0 -0.43)"/><path class="cls-1" d="M50.39,15.39c-1.25,0-2.7-.05-4.33-.16a1.16,1.16,0,0,1-.94-.44,1.3,1.3,0,0,1-.21-.93,1.82,1.82,0,0,1,.31-.9A1.84,1.84,0,0,1,46,12.4c.34-.13.78-.32,1.34-.57,1.51-.68,2.63-1.21,3.37-1.58q3.52-1.78,4.79-2.62a1.43,1.43,0,0,0,.74-1,1.12,1.12,0,0,0-.32-.9,1,1,0,0,0-.74-.39,4.32,4.32,0,0,0-.73.06c-.23,0-.46.1-.71.17a10.49,10.49,0,0,0-1.42.56A3.27,3.27,0,0,1,51,7.45a4.84,4.84,0,0,1-2,.75A1.73,1.73,0,0,1,47.89,8a2.25,2.25,0,0,1-.73-.64A1.1,1.1,0,0,1,47,6.57a1.26,1.26,0,0,1,.57-.83A6.75,6.75,0,0,1,48.92,5a19.54,19.54,0,0,1,2-.69,22.86,22.86,0,0,1,2.37-.56,25,25,0,0,1,5-.53,2.48,2.48,0,0,1,1.94.8,2.64,2.64,0,0,1,.65,1.81,2.84,2.84,0,0,1-1.09,2.33,19.1,19.1,0,0,1-4.42,2.35l-1.59.63c-1.2.44-2.44.85-3.72,1.22l.73-.05,1.29-.07,1.61-.12c.58-.05,1.14-.11,1.69-.18a10.25,10.25,0,0,0,2.62-.6,1.88,1.88,0,0,1,.79-.26,1,1,0,0,1,.43.07.54.54,0,0,1,.22.17.51.51,0,0,1,.07.68l-.25.33c-1,1.3-1.54,2.06-1.76,2.29A1.82,1.82,0,0,1,57,15,31.46,31.46,0,0,1,50.39,15.39Z" transform="translate(0 -0.43)"/><path class="cls-1" d="M71.79,8.61c.63,0,.94.22.94.65a2.78,2.78,0,0,1-.88,1.61l-.47.49a16.38,16.38,0,0,1-2,1.71,20.17,20.17,0,0,1-2,1.33,7.6,7.6,0,0,1-3.63,1.11,3.46,3.46,0,0,1-2.5-.92,2.34,2.34,0,0,1-.83-1.67,9.54,9.54,0,0,1,.17-1.76,17.23,17.23,0,0,1,1.67-4.58,1.48,1.48,0,0,0,.17-.42H61.21a1.62,1.62,0,0,1-1.08-.33,1,1,0,0,1-.38-.74,1,1,0,0,1,.15-.6.85.85,0,0,1,.39-.28,2.57,2.57,0,0,1,1-.13h2.35a1.51,1.51,0,0,0,.31-.41l.58-1a3.46,3.46,0,0,1,.75-1,1.3,1.3,0,0,1,.89-.32,3.49,3.49,0,0,1,.86.09,2.77,2.77,0,0,1,.59.24.84.84,0,0,1,.47.67,1.18,1.18,0,0,1-.1.42l-.54,1.3H72a.53.53,0,0,1,.59.61c0,1-.86,1.46-2.59,1.46H66.44a1.74,1.74,0,0,0-.39.55l-.43.8a3.21,3.21,0,0,0-.23.45l-.21.47a6,6,0,0,0-.64,2.08,1.68,1.68,0,0,0,.34,1.08,1.1,1.1,0,0,0,.9.43,3,3,0,0,0,1.11-.22A8.14,8.14,0,0,0,68,11.26a10.42,10.42,0,0,0,1.47-1.08,10.28,10.28,0,0,1,.89-.76L71,9A1.67,1.67,0,0,1,71.79,8.61Z" transform="translate(0 -0.43)"/><path class="cls-1" d="M84.22,8.13c.31,0,.46.17.46.52a2.3,2.3,0,0,1-.23.86,3.33,3.33,0,0,1-.68,1,13.58,13.58,0,0,1-1,.94c-.38.33-.82.67-1.33,1s-1.07.71-1.68,1.06a16,16,0,0,1-2,1,11.76,11.76,0,0,1-4.43.94,4.89,4.89,0,0,1-2.87-.86,2.59,2.59,0,0,1-1.28-2.16,5.06,5.06,0,0,1,2.15-3.8,13.26,13.26,0,0,1,4.38-2.4,8.26,8.26,0,0,1,2.59-.52,2.47,2.47,0,0,1,1.46.42,1.46,1.46,0,0,1,.63,1.23c0,.82-.64,1.71-1.92,2.7-.21.16-.39.29-.56.4l-.34.23a17.13,17.13,0,0,1-2.91,1.5,2.43,2.43,0,0,0,1.12.32,3.05,3.05,0,0,0,.94-.13A8.12,8.12,0,0,0,77.7,12c.35-.16.73-.34,1.13-.55s.8-.45,1.21-.71A17.33,17.33,0,0,0,82.41,9a3.87,3.87,0,0,1,1.34-.77A1.54,1.54,0,0,1,84.22,8.13ZM73.66,10.82l.53-.27.46-.25a17.55,17.55,0,0,0,2.2-1.37q.27-.25.27-.36a.6.6,0,0,0-.06-.23,1,1,0,0,0-.15-.24.67.67,0,0,0-.49-.27,1.8,1.8,0,0,0-.57.1,3.36,3.36,0,0,0-.63.26,4.56,4.56,0,0,0-.61.4,4.09,4.09,0,0,0-.51.51,1.72,1.72,0,0,0-.5,1A3,3,0,0,0,73.66,10.82Z" transform="translate(0 -0.43)"/><path class="cls-1" d="M96,9c0,.3-.39.88-1.18,1.74a15.07,15.07,0,0,1-2.36,2.14,13.09,13.09,0,0,1-5,2.28,8.67,8.67,0,0,1-2,.24A6.4,6.4,0,0,1,84,15.23a5.16,5.16,0,0,1-1.09-.42,3.86,3.86,0,0,1-.84-.61,3.64,3.64,0,0,1-.59-.73A2.59,2.59,0,0,1,81,12.09,3.74,3.74,0,0,1,81.15,11a4.27,4.27,0,0,1,.38-.91A7.3,7.3,0,0,1,85,7.3,14.37,14.37,0,0,1,89,6a9.12,9.12,0,0,1,1.16-.12,2,2,0,0,1,.58.07,1.31,1.31,0,0,1,.41.2.88.88,0,0,1,.38.75,1.76,1.76,0,0,1-.25.91,2.53,2.53,0,0,1-.63.71A2.73,2.73,0,0,1,89,9.12a5.61,5.61,0,0,1-2.07-.33,2,2,0,0,0-1,.74,1.35,1.35,0,0,0-.33.79,1.51,1.51,0,0,0,.16.68,1.9,1.9,0,0,0,.44.59,2.25,2.25,0,0,0,1.53.55q2.07,0,4.81-2.19l.87-.68a4.26,4.26,0,0,1,2-1C95.8,8.22,96,8.47,96,9Z" transform="translate(0 -0.43)"/><path class="cls-1" d="M97.74,9c0,.23.09.35.26.35a1.47,1.47,0,0,0,.82-.42l.83-.72A4,4,0,0,1,102.17,7q.77,0,1.38,1.29a14.68,14.68,0,0,1,.94,3.31c.06.25.1.37.13.37s.13-.06.28-.18l.55-.44c1.57-1.33,2.47-2.08,2.72-2.23l.51-.32.3-.15a1.92,1.92,0,0,1,.6-.14c.28,0,.42.15.42.44a4,4,0,0,1-.88,1.95,15.82,15.82,0,0,1-2.61,2.87,5.46,5.46,0,0,1-3.32,1.67q-1.48,0-2-2-.14-.51-.21-1l-.14-.75q-.06-.3-.15-.3c-.06,0-.19.1-.38.29l-.71.72a14.8,14.8,0,0,1-2,1.76,5.22,5.22,0,0,1-2.83,1.13,1.59,1.59,0,0,1-1.72-1.48A6.81,6.81,0,0,1,93,12.77a8.59,8.59,0,0,1,.19-1.65,14.2,14.2,0,0,1,.52-2A13.64,13.64,0,0,1,95.5,5.6l.86-1.13q3.09-4,5.17-4a.7.7,0,0,1,.68.46,1.19,1.19,0,0,1,.06.43,1.6,1.6,0,0,1-.25.74,7.52,7.52,0,0,1-.61.95q-.36.48-.78,1c-.28.33-.53.66-.76,1l-.72,1A7,7,0,0,0,97.74,9Z" transform="translate(0 -0.43)"/></svg>